<svg id="svg" version="1.1" xmlns="http://www.w3.org/2000/svg" xmlns:xlink="http://www.w3.org/1999/xlink" width="400" height="400" viewBox="0, 0, 400,400"><g id="svgg"><path id="path0" d="M0.000 200.000 L 0.000 400.000 200.000 400.000 L 400.000 400.000 400.000 200.000 L 400.000 0.000 200.000 0.000 L 0.000 0.000 0.000 200.000 M188.000 114.600 C 188.000 121.933,188.143 126.000,188.400 126.000 C 188.620 126.000,188.800 125.392,188.800 124.649 C 188.800 122.668,189.525 122.248,192.081 122.750 C 193.246 122.978,195.341 123.381,196.736 123.645 L 199.272 124.125 199.038 125.762 C 198.203 131.612,198.360 132.979,199.503 129.800 C 199.741 129.140,200.244 127.745,200.622 126.700 C 201.311 124.794,201.814 124.484,203.105 125.168 C 203.487 125.370,204.880 125.929,206.200 126.408 C 207.520 126.888,209.087 127.461,209.682 127.681 C 210.608 128.024,210.730 128.249,210.532 129.241 C 210.386 129.970,210.467 130.400,210.750 130.400 C 210.998 130.400,211.200 130.207,211.200 129.972 C 211.200 129.737,211.710 128.792,212.333 127.872 C 212.956 126.952,213.582 125.930,213.724 125.600 C 213.866 125.270,214.481 124.172,215.091 123.161 C 215.701 122.150,217.341 119.315,218.737 116.861 C 221.660 111.719,221.490 111.786,225.507 114.200 C 227.154 115.190,228.599 116.000,228.719 116.000 C 230.403 116.000,230.289 117.329,228.313 120.730 C 226.234 124.310,225.338 125.860,224.056 128.100 C 223.647 128.815,222.747 130.353,222.056 131.518 C 221.365 132.682,220.800 133.734,220.800 133.856 C 220.800 133.977,220.420 134.610,219.956 135.261 C 218.890 136.759,219.301 137.288,220.423 135.861 C 221.546 134.433,221.714 134.476,224.756 136.956 C 229.986 141.219,229.798 140.693,227.188 143.743 C 224.122 147.325,223.679 148.478,226.183 146.359 C 230.938 142.334,230.793 142.400,232.014 143.700 C 236.086 148.033,237.938 151.200,236.400 151.200 C 236.227 151.200,235.986 151.461,235.863 151.780 C 235.582 152.513,236.312 152.255,239.000 150.668 C 240.886 149.555,241.586 149.151,245.000 147.200 C 245.770 146.760,247.030 146.040,247.800 145.600 C 250.922 143.816,251.864 143.271,253.248 142.445 L 254.696 141.582 255.341 142.566 C 255.952 143.499,256.476 144.401,258.654 148.273 C 259.525 149.821,259.582 151.200,258.775 151.200 C 258.588 151.200,257.482 151.765,256.318 152.456 C 255.153 153.147,253.615 154.047,252.900 154.456 C 252.185 154.865,251.015 155.535,250.300 155.944 C 249.585 156.353,248.100 157.210,247.000 157.848 C 245.900 158.486,244.550 159.240,244.000 159.522 C 243.450 159.805,242.550 160.403,242.000 160.851 L 241.000 161.666 242.287 161.446 C 243.709 161.202,243.694 161.181,245.593 166.082 C 247.312 170.515,246.700 171.457,241.300 172.688 C 239.584 173.079,240.324 173.717,242.100 173.376 C 243.035 173.197,244.699 173.039,245.799 173.025 L 247.797 173.000 248.049 174.600 C 249.278 182.407,249.262 182.132,248.510 182.579 C 247.995 182.884,250.655 183.055,258.200 183.200 L 268.600 183.400 268.600 188.600 L 268.600 193.800 258.244 193.907 C 248.235 194.010,247.911 194.038,248.551 194.746 C 249.244 195.512,249.251 195.391,248.048 203.000 C 247.763 204.799,247.603 204.834,242.700 204.190 C 240.431 203.892,239.326 204.462,241.300 204.912 C 247.063 206.226,247.343 206.722,245.301 212.000 C 245.173 212.330,244.769 213.410,244.402 214.400 C 243.784 216.067,243.641 216.191,242.467 216.074 C 240.994 215.928,240.813 216.408,242.103 217.039 C 243.002 217.478,251.599 222.450,254.600 224.267 C 255.480 224.799,256.515 225.338,256.900 225.464 C 257.285 225.590,257.600 225.852,257.600 226.047 C 257.600 226.241,257.870 226.400,258.200 226.400 C 258.530 226.400,258.800 226.580,258.800 226.800 C 258.800 227.292,258.677 227.295,257.519 226.835 C 257.013 226.634,255.520 226.077,254.200 225.596 C 252.880 225.115,251.395 224.560,250.900 224.361 C 250.405 224.162,249.595 223.837,249.100 223.637 C 244.985 221.978,237.301 219.447,234.400 218.795 C 233.190 218.523,231.678 218.143,231.040 217.950 C 230.402 217.758,229.086 217.600,228.114 217.600 C 224.425 217.600,224.123 216.796,226.400 213.048 C 227.280 211.600,228.000 210.319,228.000 210.203 C 228.000 210.086,228.345 209.228,228.767 208.296 C 229.806 205.996,231.038 202.225,231.542 199.800 C 232.663 194.403,232.800 193.204,232.800 188.789 C 232.800 186.177,232.617 183.086,232.393 181.920 C 230.988 174.597,230.911 174.313,228.973 169.400 C 228.365 167.860,227.538 166.122,227.134 165.538 C 226.730 164.954,226.400 164.361,226.400 164.220 C 226.400 162.565,218.248 153.139,213.656 149.485 C 203.312 141.254,187.042 137.136,174.731 139.632 C 159.569 142.706,147.169 151.379,140.176 163.800 C 138.607 166.587,138.272 167.256,137.029 170.086 C 133.125 178.971,132.475 193.465,135.551 203.032 C 136.728 206.692,138.455 210.889,139.266 212.062 C 139.670 212.646,140.000 213.246,140.000 213.396 C 140.000 213.828,143.831 219.235,145.386 221.000 C 147.338 223.214,147.364 223.178,140.222 228.216 C 133.085 233.251,133.641 233.131,131.200 230.162 C 128.977 227.458,128.863 226.981,130.188 225.938 C 130.768 225.482,131.164 225.031,131.069 224.936 C 130.860 224.726,126.304 227.247,115.200 233.715 C 111.986 235.587,111.520 235.753,111.146 235.156 C 110.594 234.277,108.775 231.157,107.743 229.323 C 106.728 227.519,106.535 226.400,107.238 226.400 C 107.479 226.400,108.154 226.067,108.738 225.661 C 109.322 225.255,110.790 224.378,112.000 223.713 C 114.540 222.318,123.369 217.217,124.700 216.376 C 125.195 216.063,125.600 215.635,125.600 215.424 C 125.600 215.213,125.384 215.256,125.120 215.520 C 124.202 216.438,122.533 216.097,122.089 214.900 C 121.864 214.295,121.286 212.720,120.805 211.400 C 120.324 210.080,119.757 208.568,119.546 208.039 C 119.104 206.933,119.283 206.715,121.200 206.024 C 121.970 205.746,122.960 205.374,123.400 205.196 C 123.840 205.018,124.560 204.735,125.000 204.566 C 126.410 204.025,124.156 203.866,122.172 204.365 C 118.709 205.237,118.621 205.181,118.055 201.700 C 117.778 199.995,117.386 197.880,117.186 197.000 C 116.763 195.147,117.364 194.400,119.276 194.400 C 119.894 194.400,120.400 194.220,120.400 194.000 C 120.400 193.743,116.329 193.600,108.988 193.600 L 97.575 193.600 97.688 188.700 L 97.800 183.800 108.300 183.693 C 118.478 183.590,119.867 183.415,117.836 182.489 C 116.962 182.091,116.904 181.908,117.211 180.525 C 117.398 179.686,117.781 177.584,118.063 175.852 L 118.576 172.705 120.988 172.959 C 122.315 173.099,124.075 173.321,124.900 173.451 C 125.874 173.605,126.400 173.532,126.400 173.244 C 126.400 173.000,126.175 172.801,125.900 172.802 C 124.398 172.809,119.168 170.261,119.420 169.646 C 119.565 169.291,120.186 167.650,120.799 166.000 C 122.856 160.462,122.707 160.722,123.570 161.184 C 124.550 161.709,125.907 161.743,125.380 161.230 C 125.171 161.026,122.750 159.564,120.000 157.980 C 117.250 156.396,114.415 154.763,113.700 154.350 C 112.985 153.938,111.815 153.264,111.100 152.854 C 106.274 150.087,106.267 150.074,108.052 147.538 C 108.464 146.954,108.800 146.381,108.800 146.265 C 108.800 146.101,110.878 142.518,111.486 141.633 C 111.618 141.442,112.923 142.083,115.800 143.752 C 116.900 144.390,118.385 145.247,119.100 145.656 C 119.815 146.065,120.985 146.735,121.700 147.144 C 122.415 147.553,123.990 148.479,125.200 149.200 C 130.278 152.228,131.472 152.648,129.825 150.828 C 129.396 150.353,129.248 149.846,129.445 149.525 C 129.997 148.629,135.283 142.400,135.492 142.400 C 135.660 142.400,139.416 145.395,140.000 145.995 C 142.320 148.379,141.906 146.875,139.400 143.818 C 138.190 142.342,137.200 140.997,137.200 140.831 C 137.200 140.583,141.136 137.172,144.064 134.881 C 144.627 134.441,144.879 134.516,145.745 135.381 C 147.833 137.470,147.616 136.996,142.086 127.400 C 135.508 115.987,135.768 116.980,138.900 115.235 C 142.598 113.176,143.428 112.692,143.849 112.350 C 144.334 111.957,145.600 112.284,145.600 112.802 C 145.600 112.976,146.320 114.303,147.200 115.752 C 148.080 117.200,148.800 118.496,148.800 118.631 C 148.800 118.766,149.133 119.354,149.539 119.938 C 149.945 120.522,150.820 121.990,151.482 123.200 C 155.104 129.822,156.317 131.487,155.863 129.216 C 155.584 127.820,155.476 127.902,159.695 126.319 C 164.540 124.501,165.185 124.560,165.997 126.895 C 166.360 127.938,166.779 128.913,166.929 129.062 C 167.078 129.211,167.200 129.663,167.200 130.067 C 167.200 130.470,167.400 130.800,167.645 130.800 C 167.930 130.800,168.005 130.331,167.853 129.500 C 167.722 128.785,167.499 127.284,167.358 126.165 L 167.102 124.130 169.651 123.648 C 171.053 123.382,173.172 122.974,174.360 122.740 C 176.217 122.375,176.571 122.406,176.880 122.958 C 177.819 124.636,178.000 123.136,178.000 113.667 C 178.000 108.203,178.120 103.613,178.267 103.467 C 178.413 103.320,180.663 103.200,183.267 103.200 L 188.000 103.200 188.000 114.600 M191.200 146.982 C 196.917 148.261,199.371 149.164,203.883 151.649 C 218.724 159.824,228.504 179.596,225.189 194.723 C 224.962 195.755,224.589 197.500,224.359 198.600 C 223.141 204.429,219.349 211.891,215.328 216.375 L 213.737 218.149 210.756 216.358 C 206.865 214.019,200.160 210.789,198.000 210.213 C 197.450 210.066,196.370 209.777,195.600 209.569 C 183.222 206.240,170.524 208.625,156.907 216.838 C 154.209 218.465,152.802 219.043,152.796 218.527 C 152.793 218.347,152.106 217.480,151.269 216.600 C 149.554 214.797,146.080 209.719,145.112 207.600 C 143.634 204.362,142.526 201.250,142.051 199.000 C 141.772 197.680,141.376 195.949,141.172 195.154 C 140.663 193.175,140.702 184.542,141.232 181.931 C 145.021 163.241,156.700 151.253,175.400 146.859 C 178.015 146.244,188.261 146.324,191.200 146.982 M193.800 217.562 C 202.484 220.159,213.130 227.082,227.421 239.425 C 242.047 252.058,243.638 253.388,247.060 255.847 C 261.195 266.000,267.874 266.162,287.200 256.819 C 317.032 242.398,324.785 242.065,336.844 254.687 C 343.061 261.196,345.086 265.182,341.155 263.177 C 335.213 260.146,328.030 259.184,322.921 260.736 C 318.008 262.228,314.183 264.935,300.018 276.944 C 279.136 294.647,274.104 297.378,262.400 297.363 C 249.769 297.347,241.584 292.767,220.200 273.751 C 188.765 245.797,183.505 244.105,155.000 252.782 C 136.304 258.473,126.833 258.845,115.900 254.316 C 110.869 252.233,110.861 251.858,115.809 250.471 C 125.376 247.791,132.660 243.705,150.222 231.166 C 169.052 217.723,181.423 213.860,193.800 217.562 M316.468 220.002 C 329.782 221.928,342.562 233.403,357.352 256.712 C 359.032 259.361,359.598 260.800,358.959 260.800 C 358.827 260.800,356.622 258.795,354.059 256.344 C 343.407 246.158,332.911 238.647,326.660 236.736 C 322.140 235.355,320.666 235.115,316.600 235.101 C 308.496 235.074,300.874 238.084,289.000 246.001 C 273.464 256.360,263.268 256.818,250.490 247.730 C 242.736 242.216,226.128 225.957,228.300 226.007 C 230.637 226.061,238.703 228.575,247.600 232.023 C 264.505 238.573,268.637 238.173,286.495 228.253 C 300.031 220.734,307.436 218.695,316.468 220.002 M45.400 230.513 C 47.600 231.894,50.048 233.469,50.840 234.012 C 88.538 259.863,103.614 267.700,119.400 269.651 C 123.112 270.110,131.419 269.864,134.000 269.219 C 134.770 269.027,136.390 268.657,137.600 268.397 C 138.810 268.138,140.340 267.765,141.000 267.570 C 141.660 267.374,144.090 266.654,146.400 265.969 C 148.710 265.285,151.361 264.475,152.290 264.171 C 163.830 260.385,178.463 259.013,184.141 261.183 C 184.614 261.363,186.395 261.923,188.100 262.426 C 192.268 263.656,192.036 263.962,185.000 266.517 C 179.299 268.587,170.881 272.870,162.600 277.913 C 142.667 290.052,138.110 292.170,128.400 293.811 C 102.598 298.172,71.253 275.385,41.460 230.607 C 39.222 227.244,40.160 227.222,45.400 230.513 " stroke="none" fill="#fbfbfb" fill-rule="evenodd"></path><path id="path1" d="M179.800 217.223 C 173.276 218.619,170.732 219.462,166.226 221.723 C 161.849 223.918,157.085 226.959,149.000 232.717 C 140.326 238.895,139.273 239.618,135.400 242.048 C 129.694 245.630,120.833 249.645,114.633 251.459 C 113.507 251.788,112.693 252.800,113.555 252.800 C 113.787 252.800,115.017 253.278,116.288 253.861 C 121.838 256.409,132.020 257.584,138.069 256.374 C 139.241 256.140,141.190 255.753,142.400 255.514 C 144.466 255.107,147.313 254.405,150.300 253.565 C 151.015 253.364,152.185 253.041,152.900 252.847 C 153.615 252.654,155.010 252.227,156.000 251.900 C 157.909 251.270,162.864 249.817,165.200 249.203 C 180.300 245.234,191.078 248.269,206.000 260.691 C 207.430 261.881,208.960 263.144,209.400 263.498 C 210.268 264.196,215.674 268.870,216.000 269.206 C 216.110 269.319,217.726 270.759,219.592 272.406 C 221.458 274.052,223.798 276.144,224.792 277.054 C 236.234 287.520,246.344 293.915,255.120 296.239 C 257.717 296.926,267.524 296.998,269.572 296.344 C 277.241 293.894,280.590 291.995,288.800 285.438 C 293.288 281.855,301.085 275.385,301.600 274.818 C 301.836 274.558,307.740 269.658,310.600 267.348 C 321.322 258.687,328.199 257.309,339.100 261.640 C 342.772 263.099,342.935 262.979,340.911 260.311 C 332.012 248.582,322.499 244.195,312.120 247.035 C 310.844 247.384,309.260 247.811,308.600 247.985 C 307.303 248.326,304.105 249.574,301.332 250.821 C 300.380 251.249,298.745 251.982,297.700 252.448 C 296.655 252.914,292.200 255.062,287.800 257.220 C 275.163 263.420,273.354 264.000,266.647 264.000 C 257.544 264.000,248.375 259.028,235.201 246.949 C 223.899 236.587,204.373 221.600,202.175 221.600 C 202.086 221.600,200.885 221.054,199.506 220.386 C 193.430 217.442,185.055 216.098,179.800 217.223 " stroke="none" fill="#15057c" fill-rule="evenodd"></path><path id="path2" d="M178.267 103.467 C 178.120 103.613,178.000 108.203,178.000 113.667 C 178.000 123.136,177.819 124.636,176.880 122.958 C 176.571 122.406,176.217 122.375,174.360 122.740 C 173.172 122.974,171.053 123.382,169.651 123.648 L 167.102 124.130 167.358 126.165 C 167.499 127.284,167.722 128.785,167.853 129.500 C 168.005 130.331,167.930 130.800,167.645 130.800 C 167.400 130.800,167.200 130.470,167.200 130.067 C 167.200 129.663,167.078 129.211,166.929 129.062 C 166.779 128.913,166.360 127.938,165.997 126.895 C 165.185 124.560,164.540 124.501,159.695 126.319 C 155.476 127.902,155.584 127.820,155.863 129.216 C 156.317 131.487,155.104 129.822,151.482 123.200 C 150.820 121.990,149.945 120.522,149.539 119.938 C 149.133 119.354,148.800 118.766,148.800 118.631 C 148.800 118.496,148.080 117.200,147.200 115.752 C 146.320 114.303,145.600 112.976,145.600 112.802 C 145.600 112.284,144.334 111.957,143.849 112.350 C 143.428 112.692,142.598 113.176,138.900 115.235 C 135.768 116.980,135.508 115.987,142.086 127.400 C 147.616 136.996,147.833 137.470,145.745 135.381 C 144.879 134.516,144.627 134.441,144.064 134.881 C 141.136 137.172,137.200 140.583,137.200 140.831 C 137.200 140.997,138.190 142.342,139.400 143.818 C 141.906 146.875,142.320 148.379,140.000 145.995 C 139.416 145.395,135.660 142.400,135.492 142.400 C 135.283 142.400,129.997 148.629,129.445 149.525 C 129.248 149.846,129.396 150.353,129.825 150.828 C 131.472 152.648,130.278 152.228,125.200 149.200 C 123.990 148.479,122.415 147.553,121.700 147.144 C 120.985 146.735,119.815 146.065,119.100 145.656 C 118.385 145.247,116.900 144.390,115.800 143.752 C 112.923 142.083,111.618 141.442,111.486 141.633 C 110.878 142.518,108.800 146.101,108.800 146.265 C 108.800 146.381,108.464 146.954,108.052 147.538 C 106.267 150.074,106.274 150.087,111.100 152.854 C 111.815 153.264,112.985 153.938,113.700 154.350 C 114.415 154.763,117.250 156.396,120.000 157.980 C 122.750 159.564,125.171 161.026,125.380 161.230 C 125.907 161.743,124.550 161.709,123.570 161.184 C 122.707 160.722,122.856 160.462,120.799 166.000 C 120.186 167.650,119.565 169.291,119.420 169.646 C 119.168 170.261,124.398 172.809,125.900 172.802 C 126.175 172.801,126.400 173.000,126.400 173.244 C 126.400 173.532,125.874 173.605,124.900 173.451 C 124.075 173.321,122.315 173.099,120.988 172.959 L 118.576 172.705 118.063 175.852 C 117.781 177.584,117.398 179.686,117.211 180.525 C 116.904 181.908,116.962 182.091,117.836 182.489 C 119.867 183.415,118.478 183.590,108.300 183.693 L 97.800 183.800 97.688 188.700 L 97.575 193.600 108.988 193.600 C 116.329 193.600,120.400 193.743,120.400 194.000 C 120.400 194.220,119.894 194.400,119.276 194.400 C 117.364 194.400,116.763 195.147,117.186 197.000 C 117.386 197.880,117.778 199.995,118.055 201.700 C 118.621 205.181,118.709 205.237,122.172 204.365 C 124.156 203.866,126.410 204.025,125.000 204.566 C 124.560 204.735,123.840 205.018,123.400 205.196 C 122.960 205.374,121.970 205.746,121.200 206.024 C 119.283 206.715,119.104 206.933,119.546 208.039 C 119.757 208.568,120.324 210.080,120.805 211.400 C 121.286 212.720,121.864 214.295,122.089 214.900 C 122.533 216.097,124.202 216.438,125.120 215.520 C 125.384 215.256,125.600 215.213,125.600 215.424 C 125.600 215.635,125.195 216.063,124.700 216.376 C 123.369 217.217,114.540 222.318,112.000 223.713 C 110.790 224.378,109.322 225.255,108.738 225.661 C 108.154 226.067,107.479 226.400,107.238 226.400 C 106.535 226.400,106.728 227.519,107.743 229.323 C 108.775 231.157,110.594 234.277,111.146 235.156 C 111.520 235.753,111.986 235.587,115.200 233.715 C 126.304 227.247,130.860 224.726,131.069 224.936 C 131.164 225.031,130.768 225.482,130.188 225.938 C 128.863 226.981,128.977 227.458,131.200 230.162 C 133.641 233.131,133.085 233.251,140.222 228.216 C 147.364 223.178,147.338 223.214,145.386 221.000 C 143.831 219.235,140.000 213.828,140.000 213.396 C 140.000 213.246,139.670 212.646,139.266 212.062 C 132.920 202.886,131.806 181.973,137.029 170.086 C 138.272 167.256,138.607 166.587,140.176 163.800 C 145.874 153.679,156.548 144.994,167.600 141.487 C 183.640 136.396,200.994 139.410,213.656 149.485 C 218.248 153.139,226.400 162.565,226.400 164.220 C 226.400 164.361,226.730 164.954,227.134 165.538 C 227.538 166.122,228.365 167.860,228.973 169.400 C 230.911 174.313,230.988 174.597,232.393 181.920 C 232.617 183.086,232.800 186.177,232.800 188.789 C 232.800 193.204,232.663 194.403,231.542 199.800 C 231.038 202.225,229.806 205.996,228.767 208.296 C 228.345 209.228,228.000 210.086,228.000 210.203 C 228.000 210.319,227.280 211.600,226.400 213.048 C 224.123 216.796,224.425 217.600,228.114 217.600 C 229.086 217.600,230.402 217.758,231.040 217.950 C 231.678 218.143,233.190 218.523,234.400 218.795 C 237.301 219.447,244.985 221.978,249.100 223.637 C 249.595 223.837,250.405 224.162,250.900 224.361 C 251.395 224.560,252.880 225.115,254.200 225.596 C 255.520 226.077,257.013 226.634,257.519 226.835 C 258.677 227.295,258.800 227.292,258.800 226.800 C 258.800 226.580,258.530 226.400,258.200 226.400 C 257.870 226.400,257.600 226.241,257.600 226.047 C 257.600 225.852,257.285 225.590,256.900 225.464 C 256.515 225.338,255.480 224.799,254.600 224.267 C 251.599 222.450,243.002 217.478,242.103 217.039 C 240.813 216.408,240.994 215.928,242.467 216.074 C 243.641 216.191,243.784 216.067,244.402 214.400 C 244.769 213.410,245.173 212.330,245.301 212.000 C 247.343 206.722,247.063 206.226,241.300 204.912 C 239.326 204.462,240.431 203.892,242.700 204.190 C 247.603 204.834,247.763 204.799,248.048 203.000 C 249.251 195.391,249.244 195.512,248.551 194.746 C 247.911 194.038,248.235 194.010,258.244 193.907 L 268.600 193.800 268.600 188.600 L 268.600 183.400 258.200 183.200 C 250.655 183.055,247.995 182.884,248.510 182.579 C 249.262 182.132,249.278 182.407,248.049 174.600 L 247.797 173.000 245.799 173.025 C 244.699 173.039,243.035 173.197,242.100 173.376 C 240.324 173.717,239.584 173.079,241.300 172.688 C 246.700 171.457,247.312 170.515,245.593 166.082 C 243.694 161.181,243.709 161.202,242.287 161.446 L 241.000 161.666 242.000 160.851 C 242.550 160.403,243.450 159.805,244.000 159.522 C 244.550 159.240,245.900 158.486,247.000 157.848 C 248.100 157.210,249.585 156.353,250.300 155.944 C 251.015 155.535,252.185 154.865,252.900 154.456 C 253.615 154.047,255.153 153.147,256.318 152.456 C 257.482 151.765,258.588 151.200,258.775 151.200 C 259.582 151.200,259.525 149.821,258.654 148.273 C 256.476 144.401,255.952 143.499,255.341 142.566 L 254.696 141.582 253.248 142.445 C 251.864 143.271,250.922 143.816,247.800 145.600 C 247.030 146.040,245.770 146.760,245.000 147.200 C 241.586 149.151,240.886 149.555,239.000 150.668 C 236.312 152.255,235.582 152.513,235.863 151.780 C 235.986 151.461,236.227 151.200,236.400 151.200 C 237.938 151.200,236.086 148.033,232.014 143.700 C 230.793 142.400,230.938 142.334,226.183 146.359 C 223.679 148.478,224.122 147.325,227.188 143.743 C 229.798 140.693,229.986 141.219,224.756 136.956 C 221.714 134.476,221.546 134.433,220.423 135.861 C 219.301 137.288,218.890 136.759,219.956 135.261 C 220.420 134.610,220.800 133.977,220.800 133.856 C 220.800 133.734,221.365 132.682,222.056 131.518 C 222.747 130.353,223.647 128.815,224.056 128.100 C 225.338 125.860,226.234 124.310,228.313 120.730 C 230.289 117.329,230.403 116.000,228.719 116.000 C 228.599 116.000,227.154 115.190,225.507 114.200 C 221.490 111.786,221.660 111.719,218.737 116.861 C 217.341 119.315,215.701 122.150,215.091 123.161 C 214.481 124.172,213.866 125.270,213.724 125.600 C 213.582 125.930,212.956 126.952,212.333 127.872 C 211.710 128.792,211.200 129.737,211.200 129.972 C 211.200 130.207,210.998 130.400,210.750 130.400 C 210.467 130.400,210.386 129.970,210.532 129.241 C 210.730 128.249,210.608 128.024,209.682 127.681 C 209.087 127.461,207.520 126.888,206.200 126.408 C 204.880 125.929,203.487 125.370,203.105 125.168 C 201.814 124.484,201.311 124.794,200.622 126.700 C 200.244 127.745,199.741 129.140,199.503 129.800 C 198.360 132.979,198.203 131.612,199.038 125.762 L 199.272 124.125 196.736 123.645 C 195.341 123.381,193.246 122.978,192.081 122.750 C 189.525 122.248,188.800 122.668,188.800 124.649 C 188.800 125.392,188.620 126.000,188.400 126.000 C 188.143 126.000,188.000 121.933,188.000 114.600 L 188.000 103.200 183.267 103.200 C 180.663 103.200,178.413 103.320,178.267 103.467 M175.400 146.859 C 156.700 151.253,145.021 163.241,141.232 181.931 C 140.702 184.542,140.663 193.175,141.172 195.154 C 141.376 195.949,141.772 197.680,142.051 199.000 C 142.526 201.250,143.634 204.362,145.112 207.600 C 146.080 209.719,149.554 214.797,151.269 216.600 C 152.106 217.480,152.793 218.347,152.796 218.527 C 152.802 219.043,154.209 218.465,156.907 216.838 C 170.524 208.625,183.222 206.240,195.600 209.569 C 196.370 209.777,197.450 210.066,198.000 210.213 C 200.160 210.789,206.865 214.019,210.756 216.358 L 213.737 218.149 215.328 216.375 C 219.349 211.891,223.141 204.429,224.359 198.600 C 224.589 197.500,224.962 195.755,225.189 194.723 C 226.981 186.546,224.179 173.980,218.703 165.640 C 210.375 152.956,197.989 146.333,182.800 146.441 C 179.610 146.464,176.280 146.652,175.400 146.859 " stroke="none" fill="#fca913" fill-rule="evenodd"></path><path id="path3" d="M306.400 220.627 C 300.194 221.865,295.494 223.800,286.600 228.783 C 270.644 237.721,264.685 238.722,252.727 234.477 C 248.915 233.123,239.791 229.703,238.600 229.181 C 237.785 228.824,235.085 228.040,231.289 227.058 C 228.026 226.213,228.338 226.808,234.272 232.743 C 258.247 256.719,268.808 259.092,289.479 245.146 C 313.498 228.942,328.054 230.925,351.800 253.638 C 359.316 260.827,359.437 260.706,353.546 251.896 C 337.111 227.321,322.251 217.465,306.400 220.627 M41.200 229.139 C 41.200 230.405,57.864 252.794,61.192 256.000 C 61.307 256.110,62.550 257.550,63.955 259.200 C 65.360 260.850,68.780 264.418,71.555 267.130 C 100.538 295.450,124.167 300.765,150.200 284.821 C 156.489 280.969,166.742 274.842,168.847 273.678 C 173.756 270.963,183.208 266.400,183.923 266.400 C 184.457 266.400,189.359 264.369,189.765 263.980 C 191.683 262.141,173.511 259.905,166.920 261.168 C 165.864 261.370,163.830 261.747,162.400 262.005 C 160.970 262.263,159.350 262.616,158.800 262.790 C 158.250 262.965,156.990 263.332,156.000 263.607 C 155.010 263.882,153.210 264.432,152.000 264.828 C 148.601 265.942,139.791 268.388,136.400 269.159 C 128.417 270.974,118.670 270.709,110.600 268.456 C 106.676 267.361,103.866 266.385,103.420 265.961 C 103.211 265.762,102.732 265.600,102.354 265.600 C 101.442 265.600,87.098 258.269,82.800 255.606 C 80.930 254.448,78.122 252.721,76.560 251.769 C 74.998 250.818,67.348 245.769,59.560 240.550 C 42.835 229.343,41.200 228.327,41.200 229.139 " stroke="none" fill="#0785d4" fill-rule="evenodd"></path><path id="path4" d="M178.445 216.827 C 170.786 218.186,162.521 222.385,150.222 231.166 C 132.660 243.705,125.376 247.791,115.809 250.471 C 110.861 251.858,110.869 252.233,115.900 254.316 C 126.833 258.845,136.304 258.473,155.000 252.782 C 183.505 244.105,188.765 245.797,220.200 273.751 C 241.584 292.767,249.769 297.347,262.400 297.363 C 274.104 297.378,279.136 294.647,300.018 276.944 C 314.183 264.935,318.008 262.228,322.921 260.736 C 328.030 259.184,335.213 260.146,341.155 263.177 C 345.086 265.182,343.061 261.196,336.844 254.687 C 324.785 242.065,317.032 242.398,287.200 256.819 C 267.874 266.162,261.195 266.000,247.060 255.847 C 243.638 253.388,242.047 252.058,227.421 239.425 C 205.332 220.346,192.354 214.358,178.445 216.827 M190.200 217.377 C 195.515 218.471,196.358 218.776,202.496 221.832 C 209.606 225.371,220.967 234.086,235.800 247.380 C 257.385 266.725,265.395 268.197,288.200 257.009 C 302.530 249.978,305.698 248.659,312.646 246.833 C 322.479 244.248,333.663 249.646,341.213 260.620 C 342.777 262.893,342.710 263.276,340.900 262.408 C 326.972 255.732,321.398 257.813,297.000 278.799 C 279.814 293.581,273.627 296.800,262.400 296.800 C 249.935 296.800,241.000 291.797,220.600 273.393 C 204.641 258.995,195.714 252.356,188.594 249.587 C 182.254 247.123,173.245 247.136,163.800 249.624 C 160.544 250.481,160.396 250.526,153.200 252.798 C 149.992 253.811,145.512 254.983,142.600 255.570 C 131.398 257.829,123.507 257.177,114.801 253.272 L 112.601 252.286 113.801 251.780 C 114.460 251.502,115.900 251.006,117.000 250.678 C 125.801 248.058,133.904 243.505,148.800 232.810 C 167.936 219.070,178.782 215.027,190.200 217.377 M306.874 220.009 C 305.704 220.180,304.624 220.453,304.474 220.616 C 304.323 220.779,305.100 220.774,306.200 220.605 C 307.300 220.436,309.730 220.169,311.600 220.012 L 315.000 219.727 312.000 219.713 C 310.350 219.706,308.043 219.839,306.874 220.009 M316.800 220.453 C 330.265 223.631,340.501 232.390,353.546 251.896 C 359.437 260.706,359.316 260.827,351.800 253.638 C 340.845 243.160,328.092 235.065,322.802 235.232 L 321.800 235.263 322.800 235.583 C 323.350 235.759,324.610 236.135,325.600 236.419 C 332.555 238.413,342.831 245.608,354.059 256.344 C 356.622 258.795,358.827 260.800,358.959 260.800 C 360.633 260.800,351.326 246.830,343.771 238.000 C 334.762 227.471,324.717 220.786,317.000 220.184 L 315.000 220.028 316.800 220.453 M299.997 221.750 C 296.112 223.097,293.279 224.467,286.108 228.464 C 268.760 238.136,264.393 238.539,247.600 232.018 C 240.396 229.221,233.201 226.859,231.105 226.603 C 229.003 226.346,229.970 226.724,234.600 227.969 C 236.360 228.442,238.160 228.988,238.600 229.181 C 239.784 229.700,248.900 233.117,252.727 234.477 C 264.685 238.722,270.644 237.721,286.600 228.783 C 293.038 225.176,300.858 221.608,302.353 221.594 C 302.709 221.591,303.270 221.413,303.600 221.200 C 304.696 220.491,302.783 220.783,299.997 221.750 M228.000 226.541 C 228.000 227.205,240.631 239.777,244.890 243.352 C 251.970 249.295,259.538 253.666,262.594 253.577 C 263.037 253.564,262.230 253.136,260.800 252.626 C 256.169 250.975,252.570 248.914,248.222 245.421 C 240.212 238.987,228.648 227.661,229.042 226.635 C 229.202 226.217,229.065 226.000,228.643 226.000 C 228.289 226.000,228.000 226.244,228.000 226.541 M40.400 228.507 C 40.400 229.086,40.984 229.988,46.547 238.000 C 59.448 256.582,73.587 271.508,87.895 281.647 C 96.476 287.728,107.885 292.923,113.800 293.443 C 114.906 293.541,114.474 293.338,112.400 292.786 C 98.046 288.969,86.451 281.686,71.555 267.130 C 68.780 264.418,65.360 260.850,63.955 259.200 C 62.550 257.550,61.307 256.110,61.192 256.000 C 56.834 251.803,40.081 228.800,41.382 228.800 C 41.860 228.800,46.534 231.822,59.560 240.550 C 67.348 245.769,74.998 250.818,76.560 251.769 C 78.122 252.721,80.930 254.448,82.800 255.606 C 87.232 258.352,101.455 265.600,102.411 265.600 C 102.819 265.600,103.243 265.746,103.354 265.925 C 103.797 266.643,114.197 269.617,116.043 269.554 C 116.841 269.526,117.071 269.434,116.600 269.328 C 99.531 265.509,86.804 258.674,50.840 234.012 C 44.132 229.412,40.400 227.444,40.400 228.507 M311.000 234.995 C 304.576 236.331,297.826 239.515,289.479 245.146 C 284.250 248.674,277.994 251.737,273.200 253.116 C 272.286 253.379,272.091 253.532,272.637 253.559 C 274.880 253.669,282.664 250.144,288.200 246.513 C 301.610 237.717,308.256 235.079,317.000 235.085 C 319.756 235.087,321.459 234.954,321.000 234.772 C 319.791 234.295,313.715 234.430,311.000 234.995 M265.500 254.109 C 266.913 254.380,268.287 254.380,269.700 254.109 C 271.673 253.729,271.546 253.705,267.600 253.705 C 263.654 253.705,263.527 253.729,265.500 254.109 M167.800 260.613 C 163.219 261.272,159.926 261.935,159.631 262.258 C 159.390 262.522,160.461 262.373,165.800 261.399 C 173.652 259.967,191.901 261.932,189.765 263.980 C 189.359 264.369,184.457 266.400,183.923 266.400 C 183.208 266.400,173.756 270.963,168.847 273.678 C 166.742 274.842,156.489 280.969,150.200 284.821 C 140.271 290.902,131.602 293.567,121.474 293.650 C 117.071 293.686,115.895 293.788,117.200 294.020 C 121.633 294.809,128.706 294.166,134.400 292.456 C 141.904 290.202,145.272 288.466,162.600 277.913 C 170.881 272.870,179.299 268.587,185.000 266.517 C 192.037 263.961,192.267 263.657,188.100 262.421 C 186.395 261.916,184.550 261.348,184.000 261.161 C 180.920 260.112,173.125 259.848,167.800 260.613 M156.800 262.803 C 155.912 263.105,153.266 263.913,145.000 266.408 C 143.680 266.807,142.060 267.260,141.400 267.416 C 140.740 267.571,140.409 267.776,140.665 267.871 C 141.107 268.035,147.237 266.389,152.000 264.828 C 153.210 264.432,155.010 263.884,156.000 263.611 C 156.990 263.338,158.160 262.966,158.600 262.785 L 159.400 262.454 158.600 262.459 C 158.160 262.461,157.350 262.616,156.800 262.803 M137.800 268.400 C 137.067 268.715,137.084 268.746,138.000 268.766 C 138.550 268.778,139.270 268.613,139.600 268.400 C 140.387 267.891,138.984 267.891,137.800 268.400 M133.800 269.200 C 133.118 269.493,133.177 269.544,134.200 269.544 C 134.860 269.544,135.760 269.389,136.200 269.200 C 136.882 268.907,136.823 268.856,135.800 268.856 C 135.140 268.856,134.240 269.011,133.800 269.200 M118.478 270.060 C 119.673 270.397,130.236 270.385,131.800 270.044 C 132.460 269.901,129.525 269.787,125.278 269.792 C 121.030 269.796,117.970 269.917,118.478 270.060 " stroke="none" fill="#9cb5da" fill-rule="evenodd"></path></g></svg>